<?xml version="1.0" encoding="utf-8"?>
<!-- Generator: Adobe Illustrator 19.0.0, SVG Export Plug-In . SVG Version: 6.00 Build 0)  -->
<svg version="1.1" id="Layer_1" xmlns="http://www.w3.org/2000/svg" xmlns:xlink="http://www.w3.org/1999/xlink" x="0px" y="0px"
	 viewBox="0 0 400 180" style="enable-background:new 0 0 400 180;" xml:space="preserve">
<style type="text/css">
	.st0{fill:#EBEBEC;}
	.st1{font-family:'Nougat-ExtraBlack';}
	.st2{font-size:36px;}
	.st3{fill:#BE1E2D;}
	.st4{font-size:24px;}
	.st5{font-family:'SansBlack';}
	.st6{font-size:18.0759px;}
	.st7{letter-spacing:6;}
</style>
<g id="XMLID_36_">
	<g id="XMLID_39_">
		<path id="XMLID_44_" class="st0" d="M92.5,148.7c-17,0-33-6.3-45.1-17.8c-12.2-11.6-18.9-27.1-18.9-43.6s6.7-32,18.9-43.6
			c12.1-11.5,28.1-17.8,45.1-17.8s33,6.3,45.1,17.8c12.2,11.6,18.9,27.1,18.9,43.6s-6.7,32-18.9,43.6
			C125.5,142.4,109.5,148.7,92.5,148.7z M92.5,29.8c-33.6,0-60.9,25.8-60.9,57.5s27.3,57.5,60.9,57.5s60.9-25.8,60.9-57.5
			S126.1,29.8,92.5,29.8z"/>
		<g id="XMLID_40_">
			<path id="XMLID_41_" class="st0" d="M92.5,143.1c-32.5,0-58.9-25-58.9-55.8S60,31.5,92.5,31.5s58.9,25,58.9,55.8
				C151.4,118,125,143.1,92.5,143.1z M92.5,33c-31.8,0-57.7,24.3-57.7,54.3c0,29.9,25.9,54.3,57.7,54.3s57.7-24.3,57.7-54.3
				C150.2,57.4,124.3,33,92.5,33z"/>
		</g>
	</g>
</g>
<g id="XMLID_32_">
	<text id="XMLID_19_" transform="matrix(1 0 0 1 37.9207 96.156)" class="st0 st1 st2">laptop</text>
</g>
<g id="XMLID_29_">
	<text id="XMLID_18_" transform="matrix(1 0 0 1 59.7881 59.6643)" class="st3 st1 st4">www.</text>
</g>
<g id="XMLID_26_">
	<text id="XMLID_20_" transform="matrix(1 0 0 1 63.1001 124.0759)" class="st3 st1 st4">.com</text>
</g>
<text id="XMLID_25_" transform="matrix(1 0 0 1 164.7329 94.9294)" class="st0 st5 st6 st7">CHALKIDONA</text>
</svg>
