<?xml version="1.0" encoding="utf-8"?>
<!-- Generator: Adobe Illustrator 19.0.0, SVG Export Plug-In . SVG Version: 6.00 Build 0)  -->
<svg version="1.1" id="Layer_1" xmlns="http://www.w3.org/2000/svg" xmlns:xlink="http://www.w3.org/1999/xlink" x="0px" y="0px"
	 viewBox="0 0 200 200" style="enable-background:new 0 0 200 200;" xml:space="preserve">
<style type="text/css">
	.st0{fill:#EBEBEC;}
	.st1{font-family:'Nougat-ExtraBlack';}
	.st2{font-size:36px;}
	.st3{fill:#BE1E2D;}
	.st4{font-size:24px;}
	.st5{font-family:'SansBlack';}
	.st6{font-size:18.0759px;}
	.st7{letter-spacing:7;}
</style>
<g id="XMLID_36_">
	<g id="XMLID_39_">
		<path id="XMLID_44_" class="st0" d="M97.2,164.4c-17,0-33-6.3-45.1-17.8C39.9,135,33.2,119.5,33.2,103s6.7-32,18.9-43.6
			c12.1-11.5,28.1-17.8,45.1-17.8c17,0,33,6.3,45.1,17.8c12.2,11.6,18.9,27.1,18.9,43.6s-6.7,32-18.9,43.6
			C130.2,158.1,114.2,164.4,97.2,164.4z M97.2,45.5c-33.6,0-60.9,25.8-60.9,57.5c0,31.7,27.3,57.5,60.9,57.5
			c33.6,0,60.9-25.8,60.9-57.5C158.1,71.3,130.8,45.5,97.2,45.5z"/>
		<g id="XMLID_40_">
			<path id="XMLID_41_" class="st0" d="M97.2,158.8c-32.5,0-58.9-25-58.9-55.8c0-30.8,26.4-55.8,58.9-55.8c32.5,0,58.9,25,58.9,55.8
				C156.1,133.8,129.7,158.8,97.2,158.8z M97.2,48.7c-31.8,0-57.7,24.3-57.7,54.3c0,29.9,25.9,54.3,57.7,54.3
				c31.8,0,57.7-24.3,57.7-54.3C154.9,73.1,129,48.7,97.2,48.7z"/>
		</g>
	</g>
	<g id="XMLID_37_">
		<path id="XMLID_38_" class="st0" d="M6.6,103.5c0-47,40.5-85.2,90.3-85.2c49.8,0,90.3,38.2,90.3,85.2c0,20-7.3,38.4-19.6,52.9
			c1.5,0.9,3.1,1.7,4.7,2.5c12.7-15.8,19.5-35.1,19.5-55.4c0-24.5-10-47.5-28.1-64.7C146,21.7,122.2,12.3,97,12.3
			c-25.2,0-49,9.4-66.9,26.4C12,56,2,79,2,103.5c0,19.5,6.3,38,18,53.5c1.7-0.6,3.5-1.1,5.2-1.7C13.6,140.9,6.6,122.9,6.6,103.5z"/>
	</g>
</g>
<g id="XMLID_32_">
	<text id="XMLID_19_" transform="matrix(1 0 0 1 42.6279 111.8796)" class="st0 st1 st2">laptop</text>
</g>
<g id="XMLID_29_">
	<text id="XMLID_18_" transform="matrix(1 0 0 1 64.4954 75.3879)" class="st3 st1 st4">www.</text>
</g>
<g id="XMLID_26_">
	<text id="XMLID_17_" transform="matrix(1 0 0 1 67.8074 139.7996)" class="st3 st1 st4">.com</text>
</g>
<text id="XMLID_25_" transform="matrix(1 0 0 1 6.0598 182.4841)" class="st0 st5 st6 st7">CHALKIDONA</text>
</svg>
